<svg preserveAspectRatio="none" width="100%" height="100%" overflow="visible" style="display: block;" viewBox="0 0 19.9933 19.9933" fill="none" xmlns="http://www.w3.org/2000/svg">
<g id="Icon" clip-path="url(#clip0_0_52)">
<path id="Vector" d="M14.995 6.66442C16.3752 6.66442 17.4941 5.54551 17.4941 4.16526C17.4941 2.78502 16.3752 1.66611 14.995 1.66611C13.6147 1.66611 12.4958 2.78502 12.4958 4.16526C12.4958 5.54551 13.6147 6.66442 14.995 6.66442Z" stroke="var(--stroke-0, #0F172B)" stroke-width="1.66611" stroke-linecap="round" stroke-linejoin="round"/>
<path id="Vector_2" d="M4.99832 12.4958C6.37856 12.4958 7.49748 11.3769 7.49748 9.99663C7.49748 8.61639 6.37856 7.49748 4.99832 7.49748C3.61807 7.49748 2.49916 8.61639 2.49916 9.99663C2.49916 11.3769 3.61807 12.4958 4.99832 12.4958Z" stroke="var(--stroke-0, #0F172B)" stroke-width="1.66611" stroke-linecap="round" stroke-linejoin="round"/>
<path id="Vector_3" d="M14.995 18.3272C16.3752 18.3272 17.4941 17.2083 17.4941 15.828C17.4941 14.4478 16.3752 13.3288 14.995 13.3288C13.6147 13.3288 12.4958 14.4478 12.4958 15.828C12.4958 17.2083 13.6147 18.3272 14.995 18.3272Z" stroke="var(--stroke-0, #0F172B)" stroke-width="1.66611" stroke-linecap="round" stroke-linejoin="round"/>
<path id="Vector_4" d="M7.15592 11.2545L12.8457 14.5701" stroke="var(--stroke-0, #0F172B)" stroke-width="1.66611" stroke-linecap="round" stroke-linejoin="round"/>
<path id="Vector_5" d="M12.8373 5.42317L7.15592 8.73872" stroke="var(--stroke-0, #0F172B)" stroke-width="1.66611" stroke-linecap="round" stroke-linejoin="round"/>
</g>
<defs>
<clipPath id="clip0_0_52">
<rect width="19.9933" height="19.9933" fill="white"/>
</clipPath>
</defs>
</svg>
