<svg preserveAspectRatio="none" width="100%" height="100%" overflow="visible" style="display: block;" viewBox="0 0 390 48" fill="none" xmlns="http://www.w3.org/2000/svg">
<g id="Status Bars">
<path id="BG" opacity="0" d="M390 0H0V48H390V0Z" fill="var(--fill-0, white)"/>
<g id="Status Bar">
<g id="Bars/Status Bars/iPhone/Dark background">
</g>
<g id="Battery">
<g id="Border" opacity="0.35">
<g id="Vector">
</g>
<path id="Vector_2" d="M366.505 18.8896H349.667C348.47 18.8896 347.5 19.8598 347.5 21.0566V27.7226C347.5 28.9194 348.47 29.8896 349.667 29.8896H366.505C367.702 29.8896 368.672 28.9194 368.672 27.7226V21.0566C368.672 19.8598 367.702 18.8896 366.505 18.8896Z" stroke="var(--stroke-0, #121212)" stroke-miterlimit="10"/>
</g>
<path id="Cap" opacity="0.4" d="M370.172 22.3896V26.3896C370.566 26.2239 370.902 25.9458 371.138 25.59C371.374 25.2343 371.5 24.8167 371.5 24.3896C371.5 23.9626 371.374 23.545 371.138 23.1893C370.902 22.8335 370.566 22.5554 370.172 22.3896" fill="var(--fill-0, #121212)"/>
<path id="Capacity" d="M365.667 20.3896H350.333C349.597 20.3896 349 20.9865 349 21.7226V27.0566C349 27.7928 349.597 28.3896 350.333 28.3896H365.667C366.403 28.3896 367 27.7928 367 27.0566V21.7226C367 20.9865 366.403 20.3896 365.667 20.3896Z" fill="var(--fill-0, #121212)"/>
</g>
<path id="Wifi" d="M332.767 29.7611L330.674 27.6511C330.641 27.6202 330.616 27.5827 330.598 27.5412C330.581 27.4997 330.573 27.4551 330.574 27.4101C330.575 27.3653 330.585 27.3212 330.603 27.2804C330.622 27.2396 330.649 27.2031 330.682 27.1731C331.329 26.626 332.149 26.3258 332.997 26.3258C333.844 26.3258 334.665 26.626 335.312 27.1731C335.345 27.2032 335.372 27.2397 335.39 27.2805C335.409 27.3213 335.419 27.3654 335.42 27.4102C335.421 27.455 335.412 27.4995 335.395 27.5409C335.378 27.5823 335.353 27.6198 335.321 27.6511L333.229 29.7611C333.199 29.7918 333.162 29.8162 333.123 29.8329C333.083 29.8495 333.04 29.8581 332.997 29.8581C332.954 29.8581 332.911 29.8495 332.871 29.8329C332.831 29.8162 332.795 29.7918 332.765 29.7611H332.767ZM336.45 26.0611C335.504 25.2059 334.275 24.7323 333 24.7323C331.725 24.7323 330.495 25.2059 329.55 26.0611C329.489 26.1194 329.408 26.1518 329.324 26.1516C329.24 26.1514 329.159 26.1186 329.099 26.0601L327.888 24.8381C327.856 24.8068 327.831 24.7695 327.813 24.7283C327.796 24.6871 327.787 24.6428 327.787 24.5981C327.787 24.5534 327.796 24.5092 327.813 24.468C327.831 24.4268 327.856 24.3894 327.888 24.3581C329.276 23.0684 331.101 22.3515 332.996 22.3515C334.891 22.3515 336.716 23.0684 338.105 24.3581C338.137 24.3894 338.162 24.4268 338.18 24.468C338.197 24.5092 338.206 24.5534 338.206 24.5981C338.206 24.6428 338.197 24.6871 338.18 24.7283C338.162 24.7695 338.137 24.8068 338.105 24.8381L336.904 26.0601C336.844 26.1202 336.763 26.1544 336.678 26.1556C336.593 26.1567 336.511 26.1246 336.45 26.0661V26.0611ZM339.235 23.2481C337.552 21.6499 335.319 20.7588 332.998 20.7588C330.677 20.7588 328.444 21.6499 326.761 23.2481C326.731 23.2779 326.696 23.3016 326.657 23.3177C326.618 23.3339 326.576 23.3422 326.534 23.3422C326.492 23.3422 326.45 23.3339 326.411 23.3177C326.372 23.3016 326.337 23.2779 326.307 23.2481L325.099 22.0291C325.068 21.9978 325.043 21.9607 325.026 21.9197C325.009 21.8788 325 21.8349 325 21.7906C325 21.7463 325.009 21.7025 325.026 21.6615C325.043 21.6206 325.068 21.5834 325.099 21.5521C327.225 19.5163 330.055 18.3799 332.999 18.3799C335.943 18.3799 338.773 19.5163 340.899 21.5521C340.93 21.5834 340.955 21.6206 340.972 21.6615C340.989 21.7025 340.998 21.7463 340.998 21.7906C340.998 21.8349 340.989 21.8788 340.972 21.9197C340.955 21.9607 340.93 21.9978 340.899 22.0291L339.69 23.2491C339.66 23.2789 339.625 23.3026 339.586 23.3187C339.547 23.3349 339.505 23.3432 339.463 23.3432C339.421 23.3432 339.379 23.3349 339.34 23.3187C339.301 23.3026 339.266 23.2789 339.236 23.2491L339.235 23.2481Z" fill="var(--fill-0, #121212)"/>
<path id="Cellular Connection" d="M317.32 30.3975C317.055 30.3975 316.801 30.2921 316.613 30.1046C316.426 29.917 316.32 29.6627 316.32 29.3975V20.7305C316.32 20.4653 316.426 20.2109 316.613 20.0234C316.801 19.8358 317.055 19.7305 317.32 19.7305H318.32C318.586 19.7305 318.84 19.8358 319.027 20.0234C319.215 20.2109 319.32 20.4653 319.32 20.7305V29.3975C319.32 29.6627 319.215 29.917 319.027 30.1046C318.84 30.2921 318.586 30.3975 318.32 30.3975H317.32ZM312.653 30.3975C312.388 30.3975 312.134 30.2921 311.946 30.1046C311.759 29.917 311.653 29.6627 311.653 29.3975V23.0645C311.653 22.7993 311.759 22.5449 311.946 22.3574C312.134 22.1698 312.388 22.0645 312.653 22.0645H313.653C313.919 22.0645 314.173 22.1698 314.36 22.3574C314.548 22.5449 314.653 22.7993 314.653 23.0645V29.3975C314.653 29.6627 314.548 29.917 314.36 30.1046C314.173 30.2921 313.919 30.3975 313.653 30.3975H312.653ZM307.986 30.3975C307.721 30.3975 307.467 30.2921 307.279 30.1046C307.092 29.917 306.986 29.6627 306.986 29.3975V25.3975C306.986 25.1323 307.092 24.8779 307.279 24.6904C307.467 24.5028 307.721 24.3975 307.986 24.3975H308.986C309.252 24.3975 309.506 24.5028 309.693 24.6904C309.881 24.8779 309.986 25.1323 309.986 25.3975V29.3975C309.986 29.6627 309.881 29.917 309.693 30.1046C309.506 30.2921 309.252 30.3975 308.986 30.3975H307.986ZM303.32 30.3975C303.055 30.3975 302.801 30.2921 302.613 30.1046C302.426 29.917 302.32 29.6627 302.32 29.3975V27.3975C302.32 27.1323 302.426 26.8779 302.613 26.6904C302.801 26.5028 303.055 26.3975 303.32 26.3975H304.32C304.586 26.3975 304.84 26.5028 305.027 26.6904C305.215 26.8779 305.32 27.1323 305.32 27.3975V29.3975C305.32 29.6627 305.215 29.917 305.027 30.1046C304.84 30.2921 304.586 30.3975 304.32 30.3975H303.32Z" fill="var(--fill-0, #121212)"/>
<g id="Time - Dark">
<g id="Time - Light background">
</g>
<path id="Time" d="M35.3859 29H37.2699V18.431H35.3909L32.6289 20.374V22.148L35.2589 20.292H35.3849L35.3859 29ZM42.5639 29H44.4479V18.431H42.5689L39.8079 20.374V22.148L42.4379 20.292H42.5639V29ZM48.5149 27.579C48.7445 27.578 48.9687 27.5089 49.159 27.3804C49.3493 27.2518 49.4972 27.0697 49.584 26.8571C49.6707 26.6445 49.6923 26.4109 49.6462 26.1859C49.6001 25.961 49.4882 25.7548 49.3248 25.5935C49.1613 25.4321 48.9537 25.323 48.7282 25.2797C48.5027 25.2365 48.2694 25.2612 48.0579 25.3507C47.8464 25.4402 47.6662 25.5904 47.5402 25.7824C47.4142 25.9743 47.3479 26.1994 47.3499 26.429C47.3467 26.5807 47.3746 26.7315 47.4318 26.872C47.4891 27.0125 47.5746 27.1398 47.6829 27.246C47.7915 27.3554 47.9213 27.4414 48.0644 27.4987C48.2075 27.5559 48.3608 27.5833 48.5149 27.579V27.579ZM48.5149 22.144C48.7445 22.143 48.9687 22.0739 49.159 21.9454C49.3493 21.8168 49.4972 21.6347 49.584 21.4221C49.6707 21.2095 49.6923 20.9759 49.6462 20.7509C49.6001 20.526 49.4882 20.3198 49.3248 20.1585C49.1613 19.9971 48.9537 19.888 48.7282 19.8447C48.5027 19.8015 48.2694 19.8262 48.0579 19.9157C47.8464 20.0052 47.6662 20.1554 47.5402 20.3474C47.4142 20.5393 47.3479 20.7644 47.3499 20.994C47.3467 21.1457 47.3746 21.2964 47.4318 21.437C47.4891 21.5775 47.5746 21.7048 47.6829 21.811C47.7914 21.9206 47.9212 22.0068 48.0643 22.0642C48.2074 22.1216 48.3608 22.1491 48.5149 22.145V22.144ZM56.7289 29H58.5379V26.97H59.9619V25.413H58.5369V18.431H55.8719C55.5832 18.867 55.2932 19.313 55.0019 19.769C54.7106 20.225 54.4192 20.686 54.1279 21.152C53.8366 21.6187 53.5466 22.0893 53.2579 22.564C52.9692 23.0387 52.6839 23.5173 52.4019 24C52.1192 24.4787 51.8402 24.9563 51.5649 25.433V26.97H56.7299L56.7289 29ZM53.3169 25.455V25.349C53.5216 24.9877 53.7336 24.621 53.9529 24.249C54.1722 23.877 54.3956 23.5077 54.6229 23.141C54.8496 22.771 55.0776 22.4043 55.3069 22.041C55.5362 21.6777 55.7632 21.319 55.9879 20.965C56.2132 20.6137 56.4352 20.272 56.6539 19.94H56.7599V25.453L53.3169 25.455ZM65.5609 29.263C66.3354 29.2832 67.0948 29.0458 67.7199 28.588C68.3526 28.0917 68.8318 27.4264 69.1019 26.669C69.4451 25.7242 69.6095 24.7239 69.5869 23.719V23.7C69.6092 22.6977 69.4448 21.7001 69.1019 20.758C68.8299 20.0016 68.3494 19.3377 67.7159 18.843C67.0821 18.4035 66.3292 18.168 65.5579 18.168C64.7866 18.168 64.0337 18.4035 63.3999 18.843C62.767 19.3378 62.2872 20.0018 62.0159 20.758C61.6753 21.7005 61.5125 22.6981 61.5359 23.7V23.715C61.5134 24.7198 61.6775 25.7201 62.0199 26.665C62.2892 27.4239 62.7684 28.0908 63.4019 28.588C64.0267 29.0463 64.7863 29.2838 65.5609 29.263V29.263ZM65.5609 27.735C65.3469 27.7379 65.1347 27.6965 64.9376 27.6131C64.7405 27.5298 64.5629 27.4065 64.4159 27.251C64.0618 26.8583 63.8124 26.3826 63.6909 25.868C63.5112 25.1662 63.4267 24.4433 63.4399 23.719V23.7C63.4264 22.976 63.5109 22.2534 63.6909 21.552C63.8125 21.0397 64.0619 20.5667 64.4159 20.177C64.566 20.0244 64.745 19.9031 64.9425 19.8204C65.1399 19.7377 65.3518 19.695 65.5659 19.695C65.78 19.695 65.9919 19.7377 66.1894 19.8204C66.3868 19.9031 66.5658 20.0244 66.7159 20.177C67.0703 20.5667 67.3204 21.0397 67.4429 21.552C67.6224 22.2535 67.7058 22.9761 67.6909 23.7V23.715C67.7042 24.4394 67.6195 25.1623 67.4389 25.864C67.3164 26.3787 67.0664 26.8543 66.7119 27.247C66.5644 27.4037 66.3859 27.528 66.1877 27.612C65.9896 27.696 65.7761 27.7379 65.5609 27.735V27.735Z" fill="var(--fill-0, #121212)"/>
</g>
</g>
</g>
</svg>
