<svg preserveAspectRatio="none" width="100%" height="100%" overflow="visible" style="display: block;" viewBox="0 0 19.9933 19.9933" fill="none" xmlns="http://www.w3.org/2000/svg">
<g id="Icon" clip-path="url(#clip0_0_51)">
<path id="Vector" d="M12.8932 10.7381L14.1552 17.8407C14.1694 17.9243 14.1576 18.0103 14.1216 18.087C14.0856 18.1638 14.0269 18.2278 13.9536 18.2703C13.8802 18.3129 13.7956 18.3321 13.7111 18.3253C13.6265 18.3184 13.5461 18.286 13.4805 18.2322L10.4981 15.9938C10.3542 15.8862 10.1793 15.8281 9.99955 15.8281C9.81984 15.8281 9.64494 15.8862 9.50097 15.9938L6.51364 18.2314C6.4481 18.285 6.36774 18.3175 6.2833 18.3243C6.19885 18.3311 6.11434 18.312 6.04102 18.2696C5.9677 18.2271 5.90907 18.1633 5.87296 18.0867C5.83684 18.0101 5.82495 17.9242 5.83887 17.8407L7.10011 10.7381" stroke="var(--stroke-0, white)" stroke-width="1.66611" stroke-linecap="round" stroke-linejoin="round"/>
<path id="Vector_2" d="M9.99663 11.6627C12.7571 11.6627 14.995 9.42492 14.995 6.66442C14.995 3.90393 12.7571 1.66611 9.99663 1.66611C7.23614 1.66611 4.99832 3.90393 4.99832 6.66442C4.99832 9.42492 7.23614 11.6627 9.99663 11.6627Z" stroke="var(--stroke-0, white)" stroke-width="1.66611" stroke-linecap="round" stroke-linejoin="round"/>
</g>
<defs>
<clipPath id="clip0_0_51">
<rect width="19.9933" height="19.9933" fill="white"/>
</clipPath>
</defs>
</svg>
