<svg width="52" height="52" viewBox="0 0 52 52" fill="none" xmlns="http://www.w3.org/2000/svg">
<rect x="0.5" y="0.5" width="51" height="51" rx="25.5" fill="white"/>
<rect x="0.5" y="0.5" width="51" height="51" rx="25.5" stroke="#262626"/>
<path d="M3 26C3 13.2975 13.2975 3 26 3C38.7025 3 49 13.2975 49 26C49 38.7025 38.7025 49 26 49C13.2975 49 3 38.7025 3 26Z" fill="#F4864F"/>
<mask id="mask0_226_24635" style="mask-type:alpha" maskUnits="userSpaceOnUse" x="2" y="3" width="47" height="46">
<circle cx="25.9911" cy="26" r="23" fill="#D9D9D9"/>
</mask>
<g mask="url(#mask0_226_24635)">
<path d="M39.9955 50.376L12.1912 50.376L12.1912 35.8272C12.1912 30.4705 16.5336 26.1281 21.8903 26.1281L30.2963 26.1281C35.653 26.1281 39.9955 30.4705 39.9955 35.8272L39.9955 50.376Z" fill="#303030"/>
<path d="M36.0763 30.0078L16.0314 30.0078L16.0314 15.4591C16.0314 10.1024 20.3738 5.7599 25.7305 5.7599L26.3772 5.7599C31.7339 5.7599 36.0763 10.1024 36.0763 15.4591L36.0763 30.0078Z" fill="#303030"/>
<path d="M18.0749 13.3657H31.6538V21.4484C31.6538 25.1981 28.614 28.2378 24.8643 28.2378C21.1146 28.2378 18.0749 25.1981 18.0749 21.4484V13.3657Z" fill="#FFDBBF"/>
<rect x="15.0615" y="14.166" width="21.3382" height="1.93983" rx="0.969917" fill="#0E0E0E"/>
<rect x="18.0749" y="11.749" width="13.5788" height="7.11272" rx="3.55636" fill="white" stroke="#CD4D0A" stroke-width="1.29322"/>
<ellipse cx="21.6313" cy="21.9762" rx="0.646611" ry="0.808264" fill="#0E0E0E"/>
<ellipse cx="27.7741" cy="21.9762" rx="0.646611" ry="0.808264" fill="#0E0E0E"/>
<path d="M21.7587 25.1717C21.8089 25.2281 22.1068 25.4993 22.7859 25.8457C23.833 26.3799 24.7449 26.408 25.124 26.3904C26.3887 26.2048 27.1447 25.842 27.5609 25.5057C27.6287 25.4435 27.693 25.3939 27.7593 25.3428" stroke="#0E0E0E" stroke-width="0.646611" stroke-linecap="round"/>
<path d="M24.9674 22.4385C24.9271 22.4499 24.7568 22.5131 24.6138 22.5678C24.5616 22.5878 24.5332 22.6372 24.5152 22.6942C24.4929 22.7651 24.5189 22.8379 24.551 22.8915C24.6258 22.9812 24.6861 23.0286 24.7295 23.0567C24.7514 23.072 24.7729 23.0892 24.8147 23.12" stroke="#0E0E0E" stroke-width="0.646611" stroke-linecap="round"/>
</g>
</svg>
